# xmcd
# 
# Track frame offsets:
#     150
#     23247
#     45930
#     66632
#     90782
#     110175
#     133905
#     156050
#     176290
#     199512
# 
# Disc length: 2890
# 
# Revision: 2
# Processed by: cddbd v1.5.2PL0 Copyright (c) Steve Scherf et al.
# Submitted via: BonkEnc v1.0.8
# 
DISCID=7e0b480a
DTITLE=大村憲司 - 外人天国
DYEAR=1983
DGENRE=Rock
TTITLE0=Sleep Song
TTITLE1=Rikki Don't Lose That Number
TTITLE2=Bottom Of The Bottle
TTITLE3=Dance Your Way To God
TTITLE4=Ti Voglio Bene
TTITLE5=Gaijin Heaven
TTITLE6=At Last I Am Free
TTITLE7=Crazy Love
TTITLE8=The Man In White
TTITLE9=The Ring
EXTD=ÂçÂ¼·û»Ê - ³°¿ÍÅ·¹ñ\n
EXTT0=Lyrics - Kenji Omura , Peter Barakan\nMusic and Arranged - Kenji Omura
EXTT1=Lyrics - Walter Becker\nMusic - Donald Fagen\nArranged - Kenji Omura 
EXTT2=Lyrics - Kenji Omura and Peter Barakan\nMusic and Arranged - Kenji Omura\n
EXTT3=Music and Arranged - Kenji Omura
EXTT4=Music and Arranged - Kenji Omura
EXTT5=Lyrics - Kenji Omura and Peter Barakan\nMusic and Arranged - Kenji Omura
EXTT6=Lyrics and Music - Bernard Edeards and Nile Rodgers\nArranged - Kenji Omura
EXTT7=Lyrics - Kenji Omura and Peter Barakan\nMusic and Arranged - Kenji Omura
EXTT8=Music and Arranged - Kenji Omura
EXTT9=Music and Lyrics - Kenji Omura
PLAYORDER=
